<svg width="135" height="28" viewBox="0 0 135 28" fill="none" xmlns="http://www.w3.org/2000/svg">
<g clip-path="url(#clip0_349_3902)">
<path d="M27.931 0H0V28H27.931V0Z" fill="#F26625"/>
<path d="M13.0347 15.8668L8.19336 6.81348H10.4278L13.2209 12.5068C13.2209 12.6001 13.314 12.6935 13.4072 12.7868C13.5003 12.8801 13.5003 12.9735 13.5934 13.1601L13.6865 13.2535V13.3468C13.7796 13.5335 13.7796 13.6268 13.8727 13.8135C13.9658 13.9068 13.9658 14.0935 14.0589 14.1868C14.152 13.9068 14.3382 13.7201 14.4313 13.3468C14.5244 13.0668 14.7106 12.7868 14.8968 12.5068L17.6899 6.81348H19.7382L14.8968 15.9601V21.7468H13.0347V15.8668Z" fill="white"/>
<path d="M40.6865 5.41406C42.083 5.41406 43.2934 5.7874 44.2244 6.53406L43.2934 7.65406C42.4554 7.09406 41.6175 6.72073 40.5934 6.72073C39.0106 6.72073 37.8003 7.56073 37.1485 9.1474C36.7761 10.0807 36.5899 11.2941 36.5899 12.8807C36.5899 14.0941 36.7761 15.1207 37.0554 15.8674C37.8003 17.6407 39.0106 18.4807 40.8727 18.4807C41.8968 18.4807 42.8279 18.2007 43.6658 17.5474L44.5968 18.7607C43.3865 19.5074 42.083 19.8807 40.6865 19.8807C39.0106 19.8807 37.6141 19.2274 36.4968 17.8274C35.3796 16.5207 34.9141 14.7474 34.9141 12.6007C34.9141 10.4541 35.4727 8.77406 36.5899 7.37406C37.6141 6.16073 39.0106 5.41406 40.6865 5.41406Z" fill="#F26625"/>
<path d="M45.9932 14.6536C45.9932 12.9736 46.3656 11.6669 47.2035 10.7336C48.0414 9.80023 49.0656 9.24023 50.369 9.24023C51.8587 9.24023 53.069 9.80023 53.907 11.0136C54.5587 11.9469 54.838 13.2536 54.838 14.8402C54.838 16.7069 54.2794 18.2002 53.2552 19.1336C52.5104 19.7869 51.5794 20.1602 50.4621 20.1602C49.0656 20.1602 48.0414 19.6936 47.2035 18.6669C46.3656 17.7336 45.9932 16.3336 45.9932 14.6536ZM52.5104 11.9469C52.0449 11.1069 51.3932 10.6402 50.369 10.6402C49.3449 10.6402 48.6932 11.0136 48.2276 11.7602C47.8552 12.3202 47.7621 13.2536 47.7621 14.4669C47.7621 16.0536 47.9483 17.1736 48.4139 17.8269C48.8794 18.4802 49.5311 18.8536 50.4621 18.8536C51.5794 18.8536 52.3242 18.2936 52.6966 17.2669C52.8828 16.7069 52.9759 15.9602 52.9759 15.0269C53.069 13.6269 52.8828 12.6002 52.5104 11.9469Z" fill="#F26625"/>
<path d="M57.8177 12.1336C57.8177 11.1069 57.7246 10.2669 57.4453 9.61357L59.0281 9.24023C59.3074 9.7069 59.4005 10.2669 59.4005 10.7336V10.8269C59.7729 10.4536 60.1453 10.0802 60.7039 9.80023C61.3557 9.4269 61.9143 9.24023 62.4729 9.24023C63.3108 9.24023 64.0557 9.61357 64.5212 10.2669C64.6143 10.4536 64.8005 10.7336 64.8936 10.9202C66.0108 9.80023 67.035 9.24023 68.1522 9.24023C68.897 9.24023 69.5488 9.52023 70.0143 9.9869C70.4798 10.5469 70.7591 11.2002 70.7591 11.9469V19.6936H69.0832V12.0402C69.0832 11.0136 68.6177 10.5469 67.7798 10.5469C67.3143 10.5469 66.7557 10.7336 66.2901 11.1069C66.1039 11.2936 65.7315 11.5736 65.266 11.9469L65.0798 12.1336V19.6936H63.3108V12.4136C63.3108 11.7602 63.2177 11.2936 63.0315 11.1069C62.7522 10.8269 62.4729 10.7336 62.0074 10.7336C61.2626 10.7336 60.4246 11.2002 59.4005 12.1336V19.7869H57.8177V12.1336Z" fill="#F26625"/>
<path d="M73.6455 5.04033L75.3214 4.66699C75.5076 5.41366 75.6007 6.25366 75.6007 7.28033V9.61366C75.6007 10.1737 75.6007 10.547 75.6007 10.7337C76.5317 9.80032 77.5559 9.33366 78.58 9.33366C79.7903 9.33366 80.8145 9.80032 81.4662 10.7337C82.211 11.667 82.5834 12.9737 82.5834 14.5603C82.5834 16.2403 82.211 17.547 81.4662 18.5737C80.7214 19.6003 79.6972 20.067 78.4869 20.067C77.9283 20.067 77.4627 19.9737 76.9041 19.6937C76.3455 19.4137 75.9731 19.1337 75.6938 18.7603C75.6007 19.227 75.5076 19.6003 75.4145 19.8803H73.8317C74.0179 19.4137 74.111 18.5737 74.111 17.267V7.46699C74.0179 6.34699 73.9248 5.50699 73.6455 5.04033ZM76.3455 11.387C76.0662 11.5737 75.7869 11.8537 75.6007 12.1337V17.4537C76.2524 18.2937 77.0903 18.667 78.1145 18.667C78.9524 18.667 79.6041 18.387 79.9765 17.7337C80.4421 16.987 80.7214 15.9603 80.7214 14.467C80.7214 13.1603 80.5352 12.227 80.0696 11.667C79.6972 11.107 79.0455 10.827 78.1145 10.827C77.5559 10.7337 76.9041 10.9203 76.3455 11.387Z" fill="#F26625"/>
<path d="M85.0039 6.34768C85.0039 5.97435 85.097 5.69435 85.3763 5.41435C85.6556 5.13435 85.9349 5.04102 86.3073 5.04102C86.6798 5.04102 86.9591 5.13435 87.2384 5.41435C87.5177 5.69435 87.6108 5.97435 87.6108 6.34768C87.6108 6.72102 87.5177 7.00102 87.2384 7.28102C86.9591 7.56102 86.6798 7.65435 86.3073 7.65435C85.9349 7.65435 85.6556 7.56102 85.3763 7.28102C85.097 7.00102 85.0039 6.72102 85.0039 6.34768ZM85.3763 19.7877V9.52102L87.0522 9.24101V19.7877H85.3763Z" fill="#F26625"/>
<path d="M90.6833 12.1336C90.6833 11.3869 90.6833 10.9202 90.5902 10.7336C90.5902 10.4536 90.404 10.1736 90.2178 9.7069L91.8005 9.24023C92.0798 9.80023 92.1729 10.2669 92.1729 10.8269C93.1971 9.80023 94.3143 9.24023 95.4316 9.24023C95.9902 9.24023 96.4557 9.33357 96.9212 9.61357C97.3867 9.89357 97.7591 10.2669 97.9454 10.7336C98.1316 11.1069 98.2247 11.4802 98.2247 11.9469V19.7869H96.6419V12.7869C96.6419 11.9469 96.5488 11.3869 96.2695 11.1069C95.9902 10.8269 95.6178 10.6402 95.1523 10.6402C94.7798 10.6402 94.2212 10.8269 93.6626 11.1069C93.104 11.3869 92.6385 11.7602 92.266 12.1336V19.7869H90.6833V12.1336Z" fill="#F26625"/>
<path d="M101.949 11.7602L101.111 10.6402C102.508 9.7069 103.904 9.24023 105.394 9.24023C106.883 9.24023 107.814 9.80023 108.28 10.8269C108.466 11.2002 108.466 11.7602 108.466 12.6002V13.1602L108.373 16.5202C108.373 16.6136 108.373 16.8002 108.373 16.9869C108.373 17.5469 108.373 17.9202 108.466 18.2002C108.559 18.5736 108.839 18.8536 109.211 19.0402L108.373 20.1602C107.628 19.8802 107.163 19.4136 106.977 18.6669C106.046 19.6002 105.021 20.0669 103.997 20.0669C102.973 20.0669 102.135 19.7869 101.483 19.2269C100.925 18.7602 100.646 18.0136 100.646 17.0802C100.646 15.8669 101.111 15.0269 102.042 14.3736C102.973 13.7202 104.37 13.4402 106.046 13.4402C106.325 13.4402 106.511 13.4402 106.79 13.4402V12.6936C106.79 11.8536 106.697 11.2936 106.418 11.1069C106.046 10.7336 105.673 10.5469 105.021 10.5469C104.463 10.5469 103.811 10.7336 103.066 11.0136C102.787 11.2002 102.414 11.4802 101.949 11.7602ZM106.883 17.2669L106.977 14.5602C106.511 14.5602 106.232 14.5602 106.139 14.5602C104.649 14.5602 103.718 14.8402 103.159 15.4002C102.787 15.7736 102.601 16.3336 102.601 17.0802C102.601 18.2936 103.159 18.9469 104.37 18.9469C105.487 18.8536 106.325 18.2936 106.883 17.2669Z" fill="#F26625"/>
<path d="M113.773 9.52085H116.38L115.915 10.8275H113.773V17.4542C113.773 18.0142 113.866 18.3875 114.053 18.6675C114.239 18.8542 114.611 19.0408 115.077 19.0408C115.449 19.0408 115.822 18.9475 116.101 18.8542L116.287 19.8808C115.728 20.1608 115.17 20.2542 114.518 20.2542C112.935 20.2542 112.19 19.5075 112.19 17.9208V10.8275H110.794V9.52085H112.097V9.33418C112.097 9.14751 112.19 8.40085 112.284 7.18751V6.90751L113.959 6.53418C113.773 7.65418 113.773 8.68085 113.773 9.52085Z" fill="#F26625"/>
<path d="M118.056 14.6536C118.056 12.9736 118.428 11.6669 119.266 10.7336C120.011 9.80023 121.128 9.24023 122.432 9.24023C123.921 9.24023 125.132 9.80023 125.969 11.0136C126.621 11.9469 126.9 13.2536 126.9 14.8402C126.9 16.7069 126.342 18.2002 125.318 19.1336C124.573 19.7869 123.642 20.1602 122.525 20.1602C121.128 20.1602 120.104 19.6936 119.266 18.6669C118.521 17.7336 118.056 16.3336 118.056 14.6536ZM124.666 11.9469C124.2 11.1069 123.549 10.6402 122.525 10.6402C121.5 10.6402 120.849 11.0136 120.383 11.7602C120.011 12.3202 119.918 13.2536 119.918 14.4669C119.918 16.0536 120.104 17.1736 120.569 17.8269C121.035 18.4802 121.687 18.8536 122.618 18.8536C123.735 18.8536 124.48 18.2936 124.852 17.2669C125.038 16.7069 125.132 15.9602 125.132 15.0269C125.132 13.6269 124.945 12.6002 124.666 11.9469Z" fill="#F26625"/>
<path d="M129.973 11.9469C129.973 11.0136 129.88 10.2669 129.601 9.7069L131.183 9.24023C131.463 9.80023 131.556 10.2669 131.556 10.8269V11.0136C132.394 9.89357 133.325 9.33357 134.442 9.33357C134.628 9.33357 134.814 9.33357 135.001 9.4269L134.349 11.2002C134.163 11.1069 133.976 11.1069 133.883 11.1069C133.511 11.1069 133.045 11.2002 132.673 11.4802C132.301 11.7602 131.928 12.0402 131.742 12.4136C131.649 12.6936 131.556 13.0669 131.556 13.5336V19.9736H129.973V11.9469Z" fill="#F26625"/>
</g>
<defs>
<clipPath id="clip0_349_3902">
<rect width="135" height="28" fill="white"/>
</clipPath>
</defs>
</svg>
