<svg width="199" height="37" viewBox="0 0 199 37" fill="none" xmlns="http://www.w3.org/2000/svg">
<rect width="37" height="37" fill="#00B67A"/>
<path d="M15 15.5L18.5 7L21 15.5H31L10.5 30.5L13.5 21.5L6 15.5H15Z" fill="white"/>
<path d="M18.5 25L26.5 31L24 24L18.5 25Z" fill="white"/>
<rect x="40.5" width="37" height="37" fill="#00B67A"/>
<path d="M55.5 15.5L59 7L61.5 15.5H71.5L51 30.5L54 21.5L46.5 15.5H55.5Z" fill="white"/>
<path d="M59 25L67 31L64.5 24L59 25Z" fill="white"/>
<rect x="81" width="37" height="37" fill="#00B67A"/>
<path d="M96 15.5L99.5 7L102 15.5H112L91.5 30.5L94.5 21.5L87 15.5H96Z" fill="white"/>
<path d="M99.5 25L107.5 31L105 24L99.5 25Z" fill="white"/>
<rect x="121.5" width="37" height="37" fill="#00B67A"/>
<path d="M136.5 15.5L140 7L142.5 15.5H152.5L132 30.5L135 21.5L127.5 15.5H136.5Z" fill="white"/>
<path d="M140 25L148 31L145.5 24L140 25Z" fill="white"/>
<rect x="162" width="37" height="37" fill="#00B67A"/>
<rect x="179" width="20" height="37" fill="#DCDCE6"/>
<path d="M177 15.5L180.5 7L183 15.5H193L172.5 30.5L175.5 21.5L168 15.5H177Z" fill="white"/>
<path d="M180.5 25L188.5 31L186 24L180.5 25Z" fill="white"/>
</svg>
